<mxfile host="app.diagrams.net" modified="2023-06-13T16:02:10.540Z" agent="Mozilla/5.0 (Windows NT 10.0; Win64; x64) AppleWebKit/537.36 (KHTML, like Gecko) Chrome/114.0.0.0 Safari/537.36 Edg/114.0.1823.43" etag="PWr_FcLyW1uGrQfCetzh" version="21.3.8" type="github">
  <diagram name="第 1 页" id="ZVFMXpemZyb0PqFnT5jA">
    <mxGraphModel dx="1195" dy="657" grid="1" gridSize="10" guides="1" tooltips="1" connect="1" arrows="1" fold="1" page="1" pageScale="1" pageWidth="827" pageHeight="1169" math="0" shadow="0">
      <root>
        <mxCell id="0" />
        <mxCell id="1" parent="0" />
        <mxCell id="liPdygqdaJvr4eSAD_Uh-6" style="edgeStyle=orthogonalEdgeStyle;rounded=0;orthogonalLoop=1;jettySize=auto;html=1;exitX=0.5;exitY=1;exitDx=0;exitDy=0;" edge="1" parent="1" source="liPdygqdaJvr4eSAD_Uh-1" target="liPdygqdaJvr4eSAD_Uh-3">
          <mxGeometry relative="1" as="geometry" />
        </mxCell>
        <mxCell id="liPdygqdaJvr4eSAD_Uh-1" value="前端提交原始数据的excel" style="rounded=0;whiteSpace=wrap;html=1;" vertex="1" parent="1">
          <mxGeometry x="250" y="20" width="180" height="40" as="geometry" />
        </mxCell>
        <mxCell id="liPdygqdaJvr4eSAD_Uh-2" value="解析excel，将数据保存为Map&amp;lt;String,Map&amp;lt;data,Info&amp;gt;&amp;gt;&amp;nbsp;" style="rounded=0;whiteSpace=wrap;html=1;" vertex="1" parent="1">
          <mxGeometry x="176" y="440" width="340" height="40" as="geometry" />
        </mxCell>
        <mxCell id="liPdygqdaJvr4eSAD_Uh-8" style="edgeStyle=orthogonalEdgeStyle;rounded=0;orthogonalLoop=1;jettySize=auto;html=1;exitX=1;exitY=0.5;exitDx=0;exitDy=0;" edge="1" parent="1" source="liPdygqdaJvr4eSAD_Uh-3">
          <mxGeometry relative="1" as="geometry">
            <mxPoint x="680" y="200" as="targetPoint" />
          </mxGeometry>
        </mxCell>
        <mxCell id="liPdygqdaJvr4eSAD_Uh-16" style="edgeStyle=orthogonalEdgeStyle;rounded=0;orthogonalLoop=1;jettySize=auto;html=1;exitX=0.5;exitY=1;exitDx=0;exitDy=0;" edge="1" parent="1" source="liPdygqdaJvr4eSAD_Uh-3">
          <mxGeometry relative="1" as="geometry">
            <mxPoint x="340" y="230" as="targetPoint" />
          </mxGeometry>
        </mxCell>
        <mxCell id="liPdygqdaJvr4eSAD_Uh-3" value="excel表中是否有数据？" style="rhombus;whiteSpace=wrap;html=1;" vertex="1" parent="1">
          <mxGeometry x="250" y="100" width="180" height="50" as="geometry" />
        </mxCell>
        <mxCell id="liPdygqdaJvr4eSAD_Uh-11" value="没有数据" style="text;html=1;align=center;verticalAlign=middle;resizable=0;points=[];autosize=1;strokeColor=none;fillColor=none;" vertex="1" parent="1">
          <mxGeometry x="446" y="100" width="70" height="30" as="geometry" />
        </mxCell>
        <mxCell id="liPdygqdaJvr4eSAD_Uh-12" value="返回异常信息" style="rounded=0;whiteSpace=wrap;html=1;" vertex="1" parent="1">
          <mxGeometry x="625" y="200" width="110" height="40" as="geometry" />
        </mxCell>
        <mxCell id="liPdygqdaJvr4eSAD_Uh-17" value="有数据" style="text;html=1;strokeColor=none;fillColor=none;align=center;verticalAlign=middle;whiteSpace=wrap;rounded=0;" vertex="1" parent="1">
          <mxGeometry x="340" y="160" width="60" height="30" as="geometry" />
        </mxCell>
        <mxCell id="liPdygqdaJvr4eSAD_Uh-18" value="" style="rounded=0;whiteSpace=wrap;html=1;" vertex="1" parent="1">
          <mxGeometry x="160" y="290" width="120" height="60" as="geometry" />
        </mxCell>
      </root>
    </mxGraphModel>
  </diagram>
</mxfile>
